<?xml version="1.0" standalone="no"?>
<!DOCTYPE svg PUBLIC "-//W3C//DTD SVG 20010904//EN"
 "http://www.w3.org/TR/2001/REC-SVG-20010904/DTD/svg10.dtd">
<svg version="1.0" xmlns="http://www.w3.org/2000/svg"
 width="508.000000pt" height="491.000000pt" viewBox="0 0 508.000000 491.000000"
 preserveAspectRatio="xMidYMid meet">

<g transform="translate(0.000000,491.000000) scale(0.100000,-0.100000)"
fill="white" stroke="none">
<path d="M46 4818 c7 -12 950 -1273 1615 -2159 163 -218 301 -405 307 -415 8
-16 2 -28 -41 -75 -77 -82 -870 -941 -882 -954 -5 -6 -39 -42 -75 -80 -36 -39
-117 -126 -180 -195 -63 -69 -146 -159 -185 -200 -38 -42 -117 -127 -175 -190
-58 -63 -171 -185 -252 -272 -82 -87 -148 -160 -148 -163 0 -3 93 -5 207 -5
l207 0 61 63 c33 34 116 123 184 197 198 215 526 570 702 760 58 63 171 185
249 270 310 335 523 560 531 560 12 0 349 -445 1142 -1510 125 -168 234 -313
243 -323 14 -18 50 -18 749 -16 404 1 735 6 735 10 0 4 -215 295 -478 646
-263 351 -577 771 -698 933 -121 162 -364 486 -538 720 -175 234 -320 430
-323 436 -2 6 92 114 209 240 117 127 373 403 568 614 195 211 420 454 499
540 205 220 248 266 320 345 36 39 101 107 144 153 l80 82 -219 0 -219 -1
-175 -190 c-96 -104 -190 -206 -209 -227 -35 -39 -74 -81 -492 -532 -708 -765
-704 -761 -714 -748 -15 19 -969 1294 -1130 1511 l-140 187 -743 0 c-592 0
-742 -3 -736 -12z m1887 -1060 c310 -414 610 -816 668 -893 58 -77 233 -311
390 -520 157 -209 399 -533 539 -720 139 -187 292 -392 340 -455 48 -63 143
-189 210 -280 68 -91 156 -208 195 -260 81 -109 135 -186 135 -194 0 -3 -155
-6 -345 -6 l-345 0 -60 78 c-33 42 -221 293 -418 557 -596 799 -751 1007
-1382 1850 -333 446 -678 907 -765 1025 -88 118 -217 291 -287 384 -71 94
-128 174 -128 178 0 5 155 8 345 8 l344 0 564 -752z"/>
</g>
</svg>
